<?xml version="1.0" encoding="UTF-8"?>
<svg version="1.1" xmlns="http://www.w3.org/2000/svg" width="1080" height="1080">
<path d="M0 0 C2.78033207 2.78033207 3.13265054 5.93768211 3.98828125 9.65625 C4.17335739 10.43198364 4.35843353 11.20771729 4.54911804 12.00695801 C5.14369107 14.50308866 5.72870502 17.00132855 6.3125 19.5 C7.07491422 22.74066513 7.84193909 25.98019836 8.61328125 29.21875 C8.90273872 30.43543365 8.90273872 30.43543365 9.19804382 31.67669678 C10.72209487 38.00995199 12.43375548 44.27885974 14.206604 50.54632568 C16.18517148 57.57124048 17.89760036 64.6438166 19.5625 71.75 C21.23427527 78.8792876 22.95586233 85.96710528 25 93 C27.04418572 100.03306001 28.76286939 107.12129724 30.4375 114.25 C32.32988128 122.20605405 34.23586065 130.14087863 36.5 138 C39.10739616 147.05061028 41.26043157 156.20724997 43.4140625 165.375 C44.81535035 171.29299707 46.30243362 177.15949042 48 183 C50.04418528 190.0330585 51.76289697 197.12129125 53.4375 204.25 C55.51632842 212.99094425 57.67475564 221.68055644 60.15600586 230.31542969 C62.2644739 237.74371153 63.99889688 245.25750103 65.77197266 252.77148438 C67.20498387 258.80425069 68.72511051 264.79080006 70.4375 270.75 C73.06119211 279.88505263 75.24062029 289.12281834 77.41381836 298.37402344 C78.815204 304.29234257 80.30233976 310.15916751 82 316 C84.04418572 323.03306001 85.76286939 330.12129724 87.4375 337.25 C89.32988128 345.20605405 91.23586065 353.14087863 93.5 361 C96.10739616 370.05061028 98.26043157 379.20724997 100.4140625 388.375 C102.09271066 395.46436061 103.96980477 402.46010808 106.00268555 409.45556641 C107.71278086 415.53320746 109.16471941 421.67092167 110.625 427.8125 C110.9240625 429.05708984 111.223125 430.30167969 111.53125 431.58398438 C113.07865288 438.04404904 114.58275439 444.51013769 116 451 C114.97076416 450.75765625 113.94152832 450.5153125 112.88110352 450.265625 C111.44287424 449.92706998 110.00464153 449.5885295 108.56640625 449.25 C107.79672012 449.06880615 107.027034 448.8876123 106.23402405 448.70092773 C102.42592716 447.80479659 98.61756165 446.90986783 94.80810547 446.01953125 C75.15391611 441.42594967 55.54532404 436.67202202 35.96966553 431.75445557 C17.34649922 427.07645652 -1.2920805 422.46327948 -19.9375 417.875 C-21.40459371 417.51391327 -22.87168558 417.15281909 -24.33877563 416.79171753 C-30.32703552 415.31783793 -36.31533578 413.84412249 -42.3037262 412.37077332 C-57.43519169 408.64777899 -72.56483869 404.91742035 -87.69424438 401.18606567 C-92.2651308 400.0587517 -96.836053 398.93158291 -101.40698242 397.80444336 C-111.37203352 395.34715945 -121.33704921 392.88973198 -131.30206299 390.43229675 C-142.78468731 387.60061126 -154.2673278 384.76899136 -165.75 381.9375 C-166.88395454 381.65787855 -166.88395454 381.65787855 -168.04081726 381.37260818 C-188.72644069 376.27176927 -209.41256125 371.1729529 -230.0993557 366.0768652 C-235.04562257 364.85835548 -239.99182045 363.63956599 -244.93798828 362.4206543 C-247.76855054 361.7231277 -250.59911762 361.02562069 -253.4296875 360.328125 C-254.13277668 360.15487009 -254.83586586 359.98161518 -255.56026077 359.80311012 C-264.81109319 357.52361993 -274.0624504 355.24627258 -283.31430435 352.97093201 C-289.99071927 351.32894875 -296.66688421 349.68595164 -303.34289169 348.04231262 C-307.33492081 347.05953661 -311.32707991 346.07729633 -315.31958008 345.09643555 C-331.24475498 341.18373094 -347.1649438 337.26657432 -363 333 C-363 332.67 -363 332.34 -363 332 C-243.54 331.67 -124.08 331.34 -1 331 C-0.67 221.77 -0.34 112.54 0 0 Z " fill="#1C1853" transform="translate(813,372)"/>
<path d="M0 0 C18.48 0 36.96 0 56 0 C54.87486393 9.00108859 54.87486393 9.00108859 53.86425781 13.02880859 C53.52820526 14.38224869 53.52820526 14.38224869 53.18536377 15.76303101 C52.94372498 16.71521515 52.70208618 17.66739929 52.453125 18.6484375 C52.20004578 19.65983795 51.94696655 20.6712384 51.68621826 21.71328735 C51.15046675 23.85027209 50.61243777 25.98668699 50.07226562 28.12255859 C49.26160601 31.32909285 48.4583008 34.53739667 47.65625 37.74609375 C45.1199517 47.8550653 42.50423039 57.9313108 39.67510986 67.96237183 C37.94942752 74.10420879 36.43843258 80.28465235 35 86.5 C33.13343505 94.42690307 31.13729454 102.28531388 28.89453125 110.11328125 C27.07855299 116.53282223 25.53176562 123.00749092 24 129.5 C22.29916952 136.70910379 20.54006415 143.87911454 18.5 151 C16.13246724 159.26768119 14.13952528 167.61173839 12.15795898 175.97924805 C10.58735491 182.59739296 8.92115188 189.16890002 7.12890625 195.73046875 C6.15141835 199.36731225 5.24381719 203.02001373 4.33984375 206.67578125 C4.03747803 207.8980542 3.7351123 209.12032715 3.42358398 210.37963867 C2.82490846 212.80741588 2.22918324 215.23592328 1.63696289 217.6652832 C1.21338501 219.38171021 1.21338501 219.38171021 0.78125 221.1328125 C0.53439453 222.14230957 0.28753906 223.15180664 0.03320312 224.19189453 C-1.49823015 229.83634069 -3.2800362 235.41011763 -5 241 C-21.17 241 -37.34 241 -54 241 C-57.38244925 230.85265226 -57.38244925 230.85265226 -58.359375 227.29296875 C-58.58447754 226.47320557 -58.80958008 225.65344238 -59.04150391 224.80883789 C-59.27530762 223.94379639 -59.50911133 223.07875488 -59.75 222.1875 C-60.12970947 220.79035767 -60.12970947 220.79035767 -60.51708984 219.36499023 C-62.97414926 210.24250368 -65.25610943 201.0774893 -67.53198242 191.90844727 C-69.99998552 181.96713591 -72.59597477 172.07151653 -75.328125 162.19921875 C-78.56669918 150.46223533 -81.60464818 138.68872643 -84.52124023 126.86743164 C-86.28685545 119.74299327 -88.20460894 112.70132025 -90.2890625 105.6640625 C-91.23847491 102.10637424 -91.70670641 98.66616983 -92 95 C-92.66 95 -93.32 95 -94 95 C-94.56427532 97.22872991 -95.12673946 99.45788449 -95.6875 101.6875 C-95.86684082 102.40010986 -96.04618164 103.11271973 -96.23095703 103.84692383 C-97.24246886 107.89080423 -98.22598735 111.93932829 -99.16796875 116 C-101.44865239 125.81859959 -103.94799901 135.52315945 -106.76904297 145.20068359 C-109.43906957 154.40466382 -111.7265522 163.69163618 -114 173 C-117.05869228 185.50259066 -120.20238117 197.95095979 -123.80908203 210.30786133 C-126.29080654 218.86414446 -128.43431486 227.4971639 -130.52270508 236.15673828 C-130.94580372 237.7906998 -131.46625449 239.39876347 -132 241 C-148.5 241 -165 241 -182 241 C-183.98 232.585 -183.98 232.585 -186 224 C-186.94935829 220.42408379 -187.89919107 216.84825971 -188.8671875 213.27734375 C-190.31607933 207.86963767 -191.65101384 202.43329989 -193 197 C-194.90721234 189.32332271 -196.87154067 181.67059761 -198.9375 174.03515625 C-200.36386997 168.6876618 -201.67023652 163.30962927 -203 157.9375 C-204.56644124 151.61309042 -206.14863418 145.31085963 -208 139.0625 C-210.202471 131.58327558 -211.95457448 123.99951996 -213.71875 116.40649414 C-215.00316038 110.93335278 -216.39972651 105.52009148 -217.96875 100.12109375 C-220.03898318 92.98449621 -221.79438688 85.79362416 -223.5 78.5625 C-225.55165214 69.96161413 -227.64017953 61.38843151 -229.97265625 52.859375 C-231.38111378 47.56828739 -232.68535072 42.25254947 -234 36.9375 C-235.88930132 29.30287888 -237.85268766 21.72142218 -240.140625 14.1953125 C-240.89211002 11.40115458 -241.49445252 8.63727415 -242.05371094 5.80029297 C-242.23158142 4.90100067 -242.4094519 4.00170837 -242.5927124 3.07516479 C-242.72711731 2.39036041 -242.86152222 1.70555603 -243 1 C-235.73311247 0.9305571 -228.46629622 0.87721811 -221.19914436 0.84456348 C-217.82486394 0.82889256 -214.45081013 0.80762907 -211.07666016 0.77368164 C-207.19948252 0.7374264 -203.32262828 0.72030272 -199.4453125 0.70703125 C-198.23070343 0.69154739 -197.01609436 0.67606354 -195.76467896 0.66011047 C-194.08316238 0.65977058 -194.08316238 0.65977058 -192.36767578 0.65942383 C-191.37728302 0.65276199 -190.38689026 0.64610016 -189.3664856 0.63923645 C-188.58554535 0.75828842 -187.8046051 0.87734039 -187 1 C-184.93631217 4.09553174 -184.45788988 5.89674994 -183.76660156 9.49584961 C-183.43550385 11.19184547 -183.43550385 11.19184547 -183.09771729 12.92210388 C-182.86437683 14.15308304 -182.63103638 15.38406219 -182.390625 16.65234375 C-182.00918544 18.61591614 -181.6277429 20.57948796 -181.24615097 22.54303074 C-180.70985623 25.31163114 -180.17976628 28.08140575 -179.6496582 30.85119629 C-178.48871102 36.91159588 -177.31540223 42.96961243 -176.140625 49.02734375 C-176.01133417 49.6953834 -175.88204334 50.36342304 -175.74883461 51.05170631 C-173.68068492 61.72339324 -171.4548196 72.35620685 -169.14878845 82.97912598 C-166.7054698 94.26743493 -164.49144211 105.59567935 -162.3125 116.9375 C-161.5613582 120.84298737 -160.80771216 124.74797416 -160.05078125 128.65234375 C-159.87394806 129.56736664 -159.69711487 130.48238953 -159.5149231 131.42514038 C-158.33939994 137.44451669 -157.02253459 143.40251424 -155.50463867 149.34594727 C-154.94640794 152.2818574 -154.91368313 155.01836862 -155 158 C-154.34 157.67 -153.68 157.34 -153 157 C-152.19980612 154.64150836 -152.19980612 154.64150836 -151.58984375 151.7109375 C-151.32719727 150.56310791 -151.06455078 149.41527832 -150.79394531 148.23266602 C-150.51131836 146.95963623 -150.22869141 145.68660645 -149.9375 144.375 C-149.63074786 143.02315954 -149.32310863 141.67152011 -149.01464844 140.32006836 C-148.35008214 137.40386735 -147.68989699 134.4867214 -147.03271484 131.56884766 C-145.48194556 124.6935439 -143.89123723 117.82744945 -142.30392456 110.96051025 C-141.74273018 108.53102803 -141.18286656 106.10124228 -140.62329102 103.67138672 C-137.80768523 91.45222242 -134.95227424 79.24260324 -132.08724976 67.03494263 C-126.92803396 45.05118792 -121.89852724 23.0433726 -117 1 C-101.49 1 -85.98 1 -70 1 C-64.18572267 23.09425386 -64.18572267 23.09425386 -61.76708984 33.70751953 C-61.59119324 34.47791565 -61.41529663 35.24831177 -61.23406982 36.04205322 C-60.96351776 37.22779938 -60.96351776 37.22779938 -60.6875 38.4375 C-60.29912478 40.12877424 -59.91061262 41.82001704 -59.52197266 43.51123047 C-56.74490582 55.62194705 -54.05014334 67.75029204 -51.37731934 79.8843689 C-48.91996974 91.02946941 -46.30514858 102.12730654 -43.58911133 113.21264648 C-41.28495777 122.67701203 -39.14494369 132.17241019 -37.0625 141.6875 C-36.90675507 142.39620239 -36.75101013 143.10490479 -36.59054565 143.83508301 C-34 155.64453255 -34 155.64453255 -34 158 C-33.34 158 -32.68 158 -32 158 C-31.83515358 157.0868528 -31.83515358 157.0868528 -31.66697693 156.15525818 C-28.04359697 136.16462774 -24.11078343 116.24072574 -20.11645508 96.3215332 C-19.23882791 91.94478058 -18.36469314 87.56733884 -17.49146461 83.1897068 C-13.48085592 63.09183155 -9.36387019 43.02465229 -5 23 C-2.525 11.615 -2.525 11.615 0 0 Z " fill="#1C1853" transform="translate(393,371)"/>
<path d="M0 0 C16.83 0 33.66 0 51 0 C51 79.53 51 159.06 51 241 C36.81 241 22.62 241 8 241 C1.26163328 230.89244992 1.26163328 230.89244992 -1.70703125 225.76171875 C-2.36687012 224.62694092 -3.02670898 223.49216309 -3.70654297 222.32299805 C-4.04893005 221.7317514 -4.39131714 221.14050476 -4.74407959 220.53134155 C-10.83943794 210.01219113 -17.04115033 199.56477092 -23.375 189.1875 C-29.49039048 179.16787441 -35.52214584 169.10228533 -41.5 159 C-48.3570161 147.41239554 -55.28828468 135.87345414 -62.30664062 124.3828125 C-62.95310547 123.32320313 -63.59957031 122.26359375 -64.265625 121.171875 C-64.88501953 120.15673828 -65.50441406 119.14160156 -66.14257812 118.09570312 C-68.68228282 113.86286196 -71.12155588 109.57421792 -73.54589844 105.27441406 C-74.79832458 102.88721835 -74.79832458 102.88721835 -77 102 C-77 147.87 -77 193.74 -77 241 C-93.5 241 -110 241 -127 241 C-127 161.8 -127 82.6 -127 1 C-112.48 1 -97.96 1 -83 1 C-77.79143256 9.68094573 -72.58372754 18.36092997 -67.41992188 27.06835938 C-67.04665771 27.69766357 -66.67339355 28.32696777 -66.28881836 28.9753418 C-65.9047583 29.622854 -65.52069824 30.27036621 -65.125 30.9375 C-64.30016859 32.32749673 -63.47529783 33.71747012 -62.65039062 35.10742188 C-60.94548757 37.98021674 -59.24074962 40.85310949 -57.53613281 43.72607422 C-55.09512701 47.83994938 -52.65321796 51.95328771 -50.2109375 56.06640625 C-49.82134857 56.72252899 -49.43175964 57.37865173 -49.03036499 58.05465698 C-47.46005266 60.69922871 -45.88969493 63.34377347 -44.3192749 65.98828125 C-40.32306364 72.71770062 -36.32724377 79.44734874 -32.33512878 86.17919922 C-30.70831851 88.92236452 -29.08106621 91.66526748 -27.45376587 94.40814209 C-26.65634575 95.75246565 -25.85912231 97.09690589 -25.06210327 98.44146729 C-20.89207338 105.47584426 -16.70731114 112.50039357 -12.47265625 119.49609375 C-12.11656281 120.08533127 -11.76046936 120.67456879 -11.39358521 121.28166199 C-9.72311438 124.04580526 -8.04865829 126.80733371 -6.36621094 129.56420898 C-5.78774414 130.52012939 -5.20927734 131.4760498 -4.61328125 132.4609375 C-4.10579346 133.29415527 -3.59830566 134.12737305 -3.07543945 134.98583984 C-2 137 -2 137 -2 139 C-1.34 139 -0.68 139 0 139 C0 93.13 0 47.26 0 0 Z " fill="#1C1853" transform="translate(728,371)"/>
<path d="M0 0 C1.0725 -0.00773437 2.145 -0.01546875 3.25 -0.0234375 C22.40813952 0.02317598 40.27383813 7.44753531 54.24609375 20.6796875 C69.69150755 37.36783574 74.45045338 55.35320339 74.06640625 77.50390625 C73.68802371 86.05487715 71.56395811 92.72937866 67.625 100.25 C66.81289063 101.87228516 66.81289063 101.87228516 65.984375 103.52734375 C56.88288353 120.39062117 41.53577084 131.90187869 23.625 138.25 C20.655 138.58 17.685 138.91 14.625 139.25 C14.625 155.09 14.625 170.93 14.625 187.25 C24.195 187.25 33.765 187.25 43.625 187.25 C43.625 195.83 43.625 204.41 43.625 213.25 C34.055 213.25 24.485 213.25 14.625 213.25 C14.625 224.47 14.625 235.69 14.625 247.25 C5.715 247.25 -3.195 247.25 -12.375 247.25 C-12.375 236.03 -12.375 224.81 -12.375 213.25 C-22.605 213.25 -32.835 213.25 -43.375 213.25 C-43.375 204.67 -43.375 196.09 -43.375 187.25 C-33.145 187.25 -22.915 187.25 -12.375 187.25 C-12.375 171.41 -12.375 155.57 -12.375 139.25 C-16.005 138.59 -19.635 137.93 -23.375 137.25 C-26.56659778 136.02582551 -29.3832611 134.82926287 -32.375 133.25 C-33.17679687 132.82847656 -33.97859375 132.40695312 -34.8046875 131.97265625 C-47.48371044 124.84317451 -57.94834169 114.29295571 -64.375 101.25 C-64.81972656 100.35925781 -65.26445312 99.46851563 -65.72265625 98.55078125 C-72.7701595 83.81882838 -73.85337432 66.08612137 -69.4765625 50.296875 C-65.78731524 40.09257408 -60.63907507 31.33091885 -53.375 23.25 C-52.85679687 22.63898438 -52.33859375 22.02796875 -51.8046875 21.3984375 C-38.64454601 6.91566872 -19.10611087 -0.13679793 0 0 Z " fill="#1C1853" transform="translate(516.375,371.75)"/>
<path d="M0 0 C9.59962232 6.02232717 16.57832015 13.74290692 20.14453125 24.6015625 C22.2049249 35.91312366 20.25972382 45.96205997 14.78515625 55.93359375 C7.69714912 64.79360267 -0.78864655 72.14279503 -12.46484375 73.74609375 C-21.83650911 74.36013412 -30.0656648 74.47430288 -38.46484375 69.74609375 C-39.2434375 69.31039062 -40.02203125 68.8746875 -40.82421875 68.42578125 C-50.38299643 62.55579361 -55.81671316 54.76363982 -59.71484375 44.43359375 C-61.85231075 33.924381 -60.49438327 23.41877182 -54.88671875 14.1328125 C-41.92233342 -3.2406318 -20.13501833 -10.24301249 0 0 Z " fill="#1D1853" transform="translate(537.46484375,407.25390625)"/>
<path d="M0 0 C1.65 0 3.3 0 5 0 C8.06059995 7.49846989 9.97191113 15.1673809 12 23 C14.97 11.615 14.97 11.615 18 0 C19.98 0 21.96 0 24 0 C25.98 7.59 27.96 15.18 30 23 C32.22390837 15.36458127 34.38802309 7.79122171 36 0 C37.98 0 39.96 0 42 0 C39.49463763 10.81261653 36.24408596 21.39100469 33 32 C31.35 32 29.7 32 28 32 C26.99325541 28.73120384 25.99577511 25.4596529 25 22.1875 C24.57074219 20.7943457 24.57074219 20.7943457 24.1328125 19.37304688 C23.86210937 18.48037109 23.59140625 17.58769531 23.3125 16.66796875 C23.06113281 15.84578857 22.80976563 15.0236084 22.55078125 14.17651367 C22 12 22 12 22 9 C21.34 9 20.68 9 20 9 C19.90203125 9.57105469 19.8040625 10.14210938 19.703125 10.73046875 C18.36105911 18.00770534 16.27198794 24.96345483 14 32 C12.35 32 10.7 32 9 32 C5.54491247 21.41110716 2.23589687 10.92451365 0 0 Z " fill="#1C1853" transform="translate(211,631)"/>
<path d="M0 0 C1.32 0 2.64 0 4 0 C4.33 0.99 4.66 1.98 5 3 C5.350625 2.505 5.70125 2.01 6.0625 1.5 C9.0090076 -0.78116718 11.37872805 -0.31765543 15 0 C17.83156597 0.86520071 18.82996021 1.79959596 20.75 4.0625 C22.99913004 9.34795558 22.71910021 14.11664232 20.6875 19.4375 C19 22 19 22 16 24 C12.57982443 24.39958487 9.12706959 24.5635348 6 23 C5.67 26.3 5.34 29.6 5 33 C3.35 33 1.7 33 0 33 C0 22.11 0 11.22 0 0 Z " fill="#1C1853" transform="translate(497,639)"/>
<path d="M0 0 C3.79669385 1.43430656 4.80470263 2.66799447 6.875 6.1875 C8.27569922 10.93431403 8.16115801 13.20054689 7 18 C5.17890734 20.76101146 3.95798903 22.52100548 1 24 C-4.17057507 24.64060222 -7.80936543 24.89905059 -12.0625 21.6875 C-15.36327663 17.10900338 -15.86135814 12.49583944 -15 7 C-11.43534493 0.5756403 -7.03080715 -0.7166015 0 0 Z " fill="#1C1853" transform="translate(402,639)"/>
<path d="M0 0 C3.58552881 1.63687185 4.79315055 2.68972583 7 6 C7.66879075 11.45919887 7.95147808 16.38248726 5.125 21.1875 C1.34512149 24.41151402 -1.67265205 24.39046133 -6.515625 24.35546875 C-9 24 -9 24 -12.0625 21.6875 C-15.19285424 17.34539573 -15.573122 13.22973823 -15 8 C-11.90462546 1.03540729 -7.52590789 -1.12215326 0 0 Z " fill="#1C1853" transform="translate(269,639)"/>
<path d="M0 0 C5 0 5 0 6.83691406 1.82006836 C7.39088867 2.65159424 7.94486328 3.48312012 8.515625 4.33984375 C9.12664063 5.23767578 9.73765625 6.13550781 10.3671875 7.06054688 C11.29917969 8.48463867 11.29917969 8.48463867 12.25 9.9375 C13.50498852 11.80092931 14.76018556 13.6642182 16.015625 15.52734375 C16.56508789 16.35999756 17.11455078 17.19265137 17.68066406 18.05053711 C18.85469116 19.91778627 18.85469116 19.91778627 20 21 C20.33 14.07 20.66 7.14 21 0 C22.65 0 24.3 0 26 0 C26 10.56 26 21.12 26 32 C21 32 21 32 19.16308594 30.17993164 C18.60911133 29.34840576 18.05513672 28.51687988 17.484375 27.66015625 C16.87335937 26.76232422 16.26234375 25.86449219 15.6328125 24.93945312 C14.70082031 23.51536133 14.70082031 23.51536133 13.75 22.0625 C12.49501148 20.19907069 11.23981444 18.3357818 9.984375 16.47265625 C9.43491211 15.64000244 8.88544922 14.80734863 8.31933594 13.94946289 C7.14530884 12.08221373 7.14530884 12.08221373 6 11 C5.67 17.93 5.34 24.86 5 32 C3.35 32 1.7 32 0 32 C0 21.44 0 10.88 0 0 Z " fill="#1C1853" transform="translate(661,631)"/>
<path d="M0 0 C1.65 0 3.3 0 5 0 C5 0.66 5 1.32 5 2 C5.99 1.34 6.98 0.68 8 0 C12.2475253 -0.30891093 15.3586453 -0.33046701 19 2 C19.99 1.34 20.98 0.68 22 0 C25.67400407 -0.40080044 28.02624073 -0.61010758 31.20703125 1.3828125 C34.00087406 5.46097085 33.4253427 9.4348196 33.25 14.25 C33.23195313 15.18585937 33.21390625 16.12171875 33.1953125 17.0859375 C33.14825673 19.39167015 33.08253713 21.69530945 33 24 C31.35 24 29.7 24 28 24 C27.93941406 22.71222656 27.87882812 21.42445313 27.81640625 20.09765625 C27.73201753 18.41925841 27.6473687 16.74087364 27.5625 15.0625 C27.52318359 14.21236328 27.48386719 13.36222656 27.44335938 12.48632812 C27.40146484 11.67744141 27.35957031 10.86855469 27.31640625 10.03515625 C27.27974854 9.2862915 27.24309082 8.53742676 27.20532227 7.76586914 C27.18228937 5.97538674 27.18228937 5.97538674 26 5 C23.5 4.83333333 23.5 4.83333333 21 5 C19.48578999 6.51421001 19.78690144 7.92472768 19.68359375 10.03515625 C19.64169922 10.84404297 19.59980469 11.65292969 19.55664062 12.48632812 C19.51732422 13.33646484 19.47800781 14.18660156 19.4375 15.0625 C19.39431641 15.91650391 19.35113281 16.77050781 19.30664062 17.65039062 C19.20023298 19.76672037 19.09958269 21.88333813 19 24 C17.35 24 15.7 24 14 24 C13.93941406 22.71222656 13.87882812 21.42445313 13.81640625 20.09765625 C13.73201753 18.41925841 13.6473687 16.74087364 13.5625 15.0625 C13.52318359 14.21236328 13.48386719 13.36222656 13.44335938 12.48632812 C13.38051758 11.27299805 13.38051758 11.27299805 13.31640625 10.03515625 C13.27974854 9.2862915 13.24309082 8.53742676 13.20532227 7.76586914 C13.18228937 5.97538674 13.18228937 5.97538674 12 5 C9.5 4.83333333 9.5 4.83333333 7 5 C5.48578999 6.51421001 5.78690144 7.92472768 5.68359375 10.03515625 C5.64169922 10.84404297 5.59980469 11.65292969 5.55664062 12.48632812 C5.51732422 13.33646484 5.47800781 14.18660156 5.4375 15.0625 C5.39431641 15.91650391 5.35113281 16.77050781 5.30664062 17.65039062 C5.20023298 19.76672037 5.09958269 21.88333813 5 24 C3.35 24 1.7 24 0 24 C0 16.08 0 8.16 0 0 Z " fill="#1C1853" transform="translate(457,639)"/>
<path d="M0 0 C1.65 0 3.3 0 5 0 C5.33 0.66 5.66 1.32 6 2 C6.66 1.34 7.32 0.68 8 0 C14.26440678 -0.56949153 14.26440678 -0.56949153 16.9375 1.5 C17.288125 1.995 17.63875 2.49 18 3 C18.515625 2.505 19.03125 2.01 19.5625 1.5 C22.90028661 -0.55402253 25.14399755 -0.41314312 29 0 C31.19433594 1.21801758 31.19433594 1.21801758 33 3 C33.45410156 5.26831055 33.45410156 5.26831055 33.390625 7.88671875 C33.37773437 8.82451172 33.36484375 9.76230469 33.3515625 10.72851562 C33.31804687 11.70498047 33.28453125 12.68144531 33.25 13.6875 C33.23195313 14.67556641 33.21390625 15.66363281 33.1953125 16.68164062 C33.14815447 19.12206842 33.08236042 21.56054769 33 24 C31.68 24 30.36 24 29 24 C28.93941406 22.71222656 28.87882812 21.42445313 28.81640625 20.09765625 C28.73201753 18.41925841 28.6473687 16.74087364 28.5625 15.0625 C28.52318359 14.21236328 28.48386719 13.36222656 28.44335938 12.48632812 C28.40146484 11.67744141 28.35957031 10.86855469 28.31640625 10.03515625 C28.27974854 9.2862915 28.24309082 8.53742676 28.20532227 7.76586914 C28.18228937 5.97538674 28.18228937 5.97538674 27 5 C25.00041636 4.95919217 22.99954746 4.95745644 21 5 C19.3501993 8.29960141 19.61741639 11.99127884 19.4375 15.625 C19.39431641 16.42679688 19.35113281 17.22859375 19.30664062 18.0546875 C19.20048543 20.0362511 19.09973145 22.01810271 19 24 C17.35 24 15.7 24 14 24 C13.67 17.73 13.34 11.46 13 5 C10.69 5 8.38 5 6 5 C5.67 11.27 5.34 17.54 5 24 C3.35 24 1.7 24 0 24 C0 16.08 0 8.16 0 0 Z " fill="#1C1853" transform="translate(282,639)"/>
<path d="M0 0 C0.76183594 -0.00515625 1.52367187 -0.0103125 2.30859375 -0.015625 C4.84539809 0.28333981 6.41180201 0.88012867 8.5625 2.25 C10.66459857 5.40314785 10.8059761 6.11103081 10.7578125 9.69921875 C10.75136719 10.54677734 10.74492188 11.39433594 10.73828125 12.26757812 C10.72152344 13.14865234 10.70476563 14.02972656 10.6875 14.9375 C10.67847656 15.83017578 10.66945313 16.72285156 10.66015625 17.64257812 C10.63659748 19.84532314 10.60370329 22.04752588 10.5625 24.25 C8.9125 24.25 7.2625 24.25 5.5625 24.25 C5.2325 23.59 4.9025 22.93 4.5625 22.25 C3.9025 22.91 3.2425 23.57 2.5625 24.25 C-1.70336857 24.95823301 -5.32109496 24.91452681 -9.0625 22.6875 C-10.4375 20.25 -10.4375 20.25 -10.5 16.6875 C-9.4375 13.25 -9.4375 13.25 -7.4375 11.375 C-3.47255049 9.88814393 0.35642405 9.51574336 4.5625 9.25 C4.2325 7.93 3.9025 6.61 3.5625 5.25 C0.64597826 5.08318891 0.64597826 5.08318891 -2.4375 5.25 C-3.0975 5.91 -3.7575 6.57 -4.4375 7.25 C-7.0625 6.875 -7.0625 6.875 -9.4375 6.25 C-7.40724436 1.56479469 -5.10281307 -0.03442032 0 0 Z " fill="#EAEAEF" transform="translate(614.4375,638.75)"/>
<path d="M0 0 C3.80709265 1.01125899 5.20643743 2.46931251 7.5 5.6640625 C8.09150101 8.9617725 7.97422382 12.14007569 7.8125 15.4765625 C7.78994141 16.36021484 7.76738281 17.24386719 7.74414062 18.15429688 C7.68547428 20.3249516 7.59579979 22.4947294 7.5 24.6640625 C4.83333333 24.6640625 2.16666667 24.6640625 -0.5 24.6640625 C-1.56734375 24.71626953 -1.56734375 24.71626953 -2.65625 24.76953125 C-3.4296875 24.79660156 -4.203125 24.82367187 -5 24.8515625 C-6.16015625 24.90376953 -6.16015625 24.90376953 -7.34375 24.95703125 C-9.5 24.6640625 -9.5 24.6640625 -11.25 23.40234375 C-13.14245608 20.77064701 -13.04724581 18.69402126 -12.90234375 15.53515625 C-12.5 13.6640625 -12.5 13.6640625 -10.5625 11.7265625 C-6.56745858 10.34052772 -2.70433044 9.92969558 1.5 9.6640625 C1.5 8.0140625 1.5 6.3640625 1.5 4.6640625 C-2.55606165 5.13206961 -5.96588679 5.54359458 -9.5 7.6640625 C-10.49 7.0040625 -11.48 6.3440625 -12.5 5.6640625 C-8.78999511 0.71738931 -6.09044857 0.09516326 0 0 Z " fill="#1C1853" transform="translate(536.5,638.3359375)"/>
<path d="M0 0 C1.65 0 3.3 0 5 0 C5.01458252 0.7113208 5.02916504 1.4226416 5.04418945 2.15551758 C5.11861006 5.37506332 5.21529 8.59356518 5.3125 11.8125 C5.33505859 12.93205078 5.35761719 14.05160156 5.38085938 15.20507812 C5.41630859 16.27822266 5.45175781 17.35136719 5.48828125 18.45703125 C5.51446533 19.44678955 5.54064941 20.43654785 5.56762695 21.45629883 C5.81183835 24.02050612 5.81183835 24.02050612 7.31323242 25.8269043 C10.11673474 27.77665515 12.70432522 27.29425668 16 27 C16.99 26.34 17.98 25.68 19 25 C19.51012565 22.38803709 19.51012565 22.38803709 19.51171875 19.3359375 C19.54716797 18.21445312 19.58261719 17.09296875 19.61914062 15.9375 C19.64169922 14.761875 19.66425781 13.58625 19.6875 12.375 C19.72166016 11.19164062 19.75582031 10.00828125 19.79101562 8.7890625 C19.87370575 5.8594694 19.94278714 2.9301836 20 0 C21.65 0 23.3 0 25 0 C25.14541967 4.22880411 25.23411527 8.45696413 25.3125 12.6875 C25.35439453 13.88568359 25.39628906 15.08386719 25.43945312 16.31835938 C25.56028038 24.99375597 25.56028038 24.99375597 23.93505859 27.91259766 C20.44473701 31.47469963 17.49104393 32.17199929 12.6875 32.25 C8.31183482 32.20418152 5.37189339 32.04558112 2 29 C-0.11255613 25.67907293 -0.2350353 23.03345948 -0.1953125 19.140625 C-0.18886719 18.02558594 -0.18242188 16.91054688 -0.17578125 15.76171875 C-0.15902344 14.60285156 -0.14226563 13.44398438 -0.125 12.25 C-0.11597656 11.07566406 -0.10695313 9.90132812 -0.09765625 8.69140625 C-0.07410063 5.79406464 -0.04120652 2.89713559 0 0 Z " fill="#1C1853" transform="translate(695,631)"/>
<path d="M0 0 C2.9091534 1.26484931 4.46015566 2.25450067 6.3125 4.8125 C7 7 7 7 7 13 C1.39 13 -4.22 13 -10 13 C-8.54711014 17.5841963 -8.54711014 17.5841963 -7 19 C-3.54178598 19.25003964 -3.54178598 19.25003964 0 19 C0.66 18.34 1.32 17.68 2 17 C4.625 17.375 4.625 17.375 7 18 C4.25 22.875 4.25 22.875 2 24 C-3.47957298 24.61766523 -7.62589942 25.04431644 -12.125 21.625 C-15.37185617 17.07940136 -15.68478519 13.50604308 -15 8 C-11.40697781 1.18564757 -7.64155685 -0.97011952 0 0 Z " fill="#1C1853" transform="translate(336,639)"/>
<path d="M0 0 C1.8203125 1.16015625 1.8203125 1.16015625 3.8203125 4.16015625 C3.8203125 5.15015625 3.8203125 6.14015625 3.8203125 7.16015625 C0.44568535 6.61291942 -1.2620375 6.10525625 -4.1796875 4.16015625 C-7.72156581 3.82677029 -7.72156581 3.82677029 -11.1796875 4.16015625 C-13.40704193 5.92080575 -13.40704193 5.92080575 -13.19921875 8.12890625 C-12.28895475 10.45902875 -12.28895475 10.45902875 -9.37890625 11.50390625 C-8.22003906 11.88546875 -7.06117188 12.26703125 -5.8671875 12.66015625 C-1.31900541 14.16772837 1.79295366 15.35579974 4.8203125 19.16015625 C5.48386098 23.05850357 5.15978399 24.63339014 3.0078125 27.97265625 C-0.30937073 31.28983948 -3.11684237 31.31712474 -7.6171875 31.34765625 C-9.03837891 31.36892578 -9.03837891 31.36892578 -10.48828125 31.390625 C-13.28877666 31.1508148 -14.84852797 30.70230794 -17.1796875 29.16015625 C-19.1796875 26.16015625 -19.1796875 26.16015625 -19.1796875 22.16015625 C-17.5296875 22.16015625 -15.8796875 22.16015625 -14.1796875 22.16015625 C-13.8496875 23.15015625 -13.5196875 24.14015625 -13.1796875 25.16015625 C-10.16100316 26.66949842 -7.50671521 26.33526297 -4.1796875 26.16015625 C-3.1896875 25.50015625 -2.1996875 24.84015625 -1.1796875 24.16015625 C-1.1796875 22.84015625 -1.1796875 21.52015625 -1.1796875 20.16015625 C-2.07171875 19.845625 -2.96375 19.53109375 -3.8828125 19.20703125 C-5.05328125 18.7790625 -6.22375 18.35109375 -7.4296875 17.91015625 C-8.58984375 17.4925 -9.75 17.07484375 -10.9453125 16.64453125 C-14.17986223 15.16007606 -15.98423209 13.93364219 -18.1796875 11.16015625 C-18.8046875 7.72265625 -18.8046875 7.72265625 -18.1796875 4.16015625 C-13.47372702 -1.66037382 -7.00922377 -2.70068658 0 0 Z " fill="#1C1853" transform="translate(746.1796875,631.83984375)"/>
<path d="M0 0 C1.32 0 2.64 0 4 0 C4.33 0.99 4.66 1.98 5 3 C5.350625 2.505 5.70125 2.01 6.0625 1.5 C8 0 8 0 11.375 -0.5 C15 0 15 0 17.70703125 1.91796875 C20.9228908 6.24047843 20.56605714 9.58142106 20.3125 14.8125 C20.28994141 15.69615234 20.26738281 16.57980469 20.24414062 17.49023438 C20.18547428 19.6608891 20.09579979 21.8306669 20 24 C18.35 24 16.7 24 15 24 C14.93941406 22.71222656 14.87882812 21.42445313 14.81640625 20.09765625 C14.73201753 18.41925841 14.6473687 16.74087364 14.5625 15.0625 C14.52318359 14.21236328 14.48386719 13.36222656 14.44335938 12.48632812 C14.38051758 11.27299805 14.38051758 11.27299805 14.31640625 10.03515625 C14.27974854 9.2862915 14.24309082 8.53742676 14.20532227 7.76586914 C14.18228937 5.97538674 14.18228937 5.97538674 13 5 C10 4.83333333 10 4.83333333 7 5 C5.48578999 6.51421001 5.78690144 7.92472768 5.68359375 10.03515625 C5.64169922 10.84404297 5.59980469 11.65292969 5.55664062 12.48632812 C5.51732422 13.33646484 5.47800781 14.18660156 5.4375 15.0625 C5.39431641 15.91650391 5.35113281 16.77050781 5.30664062 17.65039062 C5.20023298 19.76672037 5.09958269 21.88333813 5 24 C3.35 24 1.7 24 0 24 C0 16.08 0 8.16 0 0 Z " fill="#1C1853" transform="translate(349,639)"/>
<path d="M0 0 C8.58 0 17.16 0 26 0 C26 1.32 26 2.64 26 4 C22.7 4 19.4 4 16 4 C16 13.24 16 22.48 16 32 C14.35 32 12.7 32 11 32 C11 22.76 11 13.52 11 4 C7.37 4 3.74 4 0 4 C0 2.68 0 1.36 0 0 Z " fill="#1C1853" transform="translate(755,631)"/>
<path d="M0 0 C2.64649893 1.39035136 3.94074808 2.72954276 6 5 C6 5.99 6 6.98 6 8 C3.625 8.1875 3.625 8.1875 1 8 C0.34 7.01 -0.32 6.02 -1 5 C-4.0996593 4.60429881 -6.12198451 4.50245789 -8.875 6.0625 C-10.62858245 9.08255866 -10.29989731 11.58117069 -10 15 C-9.11935073 17.35369807 -9.11935073 17.35369807 -8 19 C-4.58357241 19.25015873 -4.58357241 19.25015873 -1 19 C-0.34 18.01 0.32 17.02 1 16 C3.625 15.8125 3.625 15.8125 6 16 C5.4360709 19.27078876 4.54319569 20.86371562 2 23 C-1.46527824 24.73263912 -5.21107028 24.4719774 -9 24 C-12.05898964 22.24270808 -13.513863 20.77339977 -15.375 17.8125 C-16.2851718 13.71672691 -16.03724944 10.06072122 -15 6 C-11.04352276 -0.1261583 -7.01576304 -1.06940442 0 0 Z " fill="#1C1853" transform="translate(565,639)"/>
<path d="M0 0 C-0.33 1.32 -0.66 2.64 -1 4 C-2.32 4.33 -3.64 4.66 -5 5 C-5.33 6.32 -5.66 7.64 -6 9 C-4.35 9 -2.7 9 -1 9 C-1 10.32 -1 11.64 -1 13 C-2.65 13 -4.3 13 -6 13 C-6 19.6 -6 26.2 -6 33 C-7.65 33 -9.3 33 -11 33 C-11 26.4 -11 19.8 -11 13 C-12.32 13 -13.64 13 -15 13 C-15 11.68 -15 10.36 -15 9 C-13.68 9 -12.36 9 -11 9 C-11.061875 8.071875 -11.12375 7.14375 -11.1875 6.1875 C-11 3 -11 3 -10 1.125 C-6.74686316 -0.70488947 -3.68609891 -0.18128355 0 0 Z " fill="#1C1853" transform="translate(428,630)"/>
<path d="M0 0 C1.65 0 3.3 0 5 0 C5 1.98 5 3.96 5 6 C6.65 6 8.3 6 10 6 C10 7.32 10 8.64 10 10 C8.35 10 6.7 10 5 10 C5.33 14.95 5.66 19.9 6 25 C7.32 25.33 8.64 25.66 10 26 C10 27.32 10 28.64 10 30 C3.49959631 30.36794738 3.49959631 30.36794738 1.2878418 28.73901367 C-0.27556408 26.62789707 -0.35164149 25.58943959 -0.29296875 22.98828125 C-0.28330078 22.23095703 -0.27363281 21.47363281 -0.26367188 20.69335938 C-0.23853516 19.90767578 -0.21339844 19.12199219 -0.1875 18.3125 C-0.16719727 17.11657227 -0.16719727 17.11657227 -0.14648438 15.89648438 C-0.11117089 13.93070033 -0.05736447 11.96526418 0 10 C-1.32 10 -2.64 10 -4 10 C-4 8.68 -4 7.36 -4 6 C-2.68 6 -1.36 6 0 6 C0 4.02 0 2.04 0 0 Z " fill="#1C1853" transform="translate(633,633)"/>
<path d="M0 0 C1.65 0 3.3 0 5 0 C5 1.98 5 3.96 5 6 C6.65 6 8.3 6 10 6 C10 7.32 10 8.64 10 10 C8.35 10 6.7 10 5 10 C5.33 14.95 5.66 19.9 6 25 C6.99 25.33 7.98 25.66 9 26 C9.6875 28.0625 9.6875 28.0625 10 30 C3.49959631 30.36794738 3.49959631 30.36794738 1.2878418 28.73901367 C-0.27556408 26.62789707 -0.35164149 25.58943959 -0.29296875 22.98828125 C-0.28330078 22.23095703 -0.27363281 21.47363281 -0.26367188 20.69335938 C-0.23853516 19.90767578 -0.21339844 19.12199219 -0.1875 18.3125 C-0.16719727 17.11657227 -0.16719727 17.11657227 -0.14648438 15.89648438 C-0.11117089 13.93070033 -0.05736447 11.96526418 0 10 C-1.32 10 -2.64 10 -4 10 C-4 8.68 -4 7.36 -4 6 C-2.68 6 -1.36 6 0 6 C0 4.02 0 2.04 0 0 Z " fill="#1C1853" transform="translate(578,633)"/>
<path d="M0 0 C3 0.4375 3 0.4375 4.8125 1.8125 C7.39811365 5.35070815 7.29929368 8.09774169 7 12.4375 C5.9375 14.875 5.9375 14.875 4 16.4375 C0.5 16.9375 0.5 16.9375 -3 16.4375 C-5.28677385 14.66709444 -5.86400707 13.37221195 -6.27734375 10.53125 C-6.43018329 7.25437028 -6.23053097 4.94979106 -4.875 1.9375 C-3 0.4375 -3 0.4375 0 0 Z " fill="#221E57" transform="translate(398,642.5625)"/>
<path d="M0 0 C3 0.4375 3 0.4375 4.8125 1.8125 C7.21050151 5.09397575 7.3168342 7.39786389 7 11.4375 C5.9375 14.3125 5.9375 14.3125 4 16.4375 C0.5 17 0.5 17 -3 16.4375 C-5.28677385 14.66709444 -5.86400707 13.37221195 -6.27734375 10.53125 C-6.43018329 7.25437028 -6.23053097 4.94979106 -4.875 1.9375 C-3 0.4375 -3 0.4375 0 0 Z " fill="#201D56" transform="translate(265,642.5625)"/>
<path d="M0 0 C2.9375 0.5625 2.9375 0.5625 4.8125 2.0625 C6.41492694 5.62344875 6.49643812 8.72078447 5.9375 12.5625 C4.875 15.0625 4.875 15.0625 2.9375 16.5625 C-0.5625 17.125 -0.5625 17.125 -4.0625 16.5625 C-6.46474964 13.92777459 -6.98841705 12.07049736 -7.5 8.5625 C-6.78142951 3.63515951 -5.00908905 0.92003676 0 0 Z " fill="#231F58" transform="translate(508.0625,642.4375)"/>
<path d="M0 0 C1.65 0 3.3 0 5 0 C5 10.56 5 21.12 5 32 C3.35 32 1.7 32 0 32 C0 21.44 0 10.88 0 0 Z " fill="#1C1853" transform="translate(445,631)"/>
<path d="M0 0 C6.33086931 -0.36524246 6.33086931 -0.36524246 9.20996094 1.20629883 C11 3 11 3 11.45410156 5.26831055 C11.4331543 6.13238525 11.41220703 6.99645996 11.390625 7.88671875 C11.37773437 8.82451172 11.36484375 9.76230469 11.3515625 10.72851562 C11.31804687 11.70498047 11.28453125 12.68144531 11.25 13.6875 C11.23195313 14.67556641 11.21390625 15.66363281 11.1953125 16.68164062 C11.14815447 19.12206842 11.08236042 21.56054769 11 24 C9.68 24 8.36 24 7 24 C6.93941406 22.71222656 6.87882812 21.42445313 6.81640625 20.09765625 C6.73201753 18.41925841 6.6473687 16.74087364 6.5625 15.0625 C6.52318359 14.21236328 6.48386719 13.36222656 6.44335938 12.48632812 C6.38051758 11.27299805 6.38051758 11.27299805 6.31640625 10.03515625 C6.27974854 9.2862915 6.24309082 8.53742676 6.20532227 7.76586914 C6.18228937 5.97538674 6.18228937 5.97538674 5 5 C2.67182036 4.63239269 0.3381615 4.29758419 -2 4 C-1.34 2.68 -0.68 1.36 0 0 Z " fill="#1C1853" transform="translate(304,639)"/>
<path d="M0 0 C1.32 0 2.64 0 4 0 C6.21336414 3.32004621 6.20762974 4.07410932 5.9765625 7.88671875 C5.925 8.82451172 5.8734375 9.76230469 5.8203125 10.72851562 C5.75585938 11.70498047 5.69140625 12.68144531 5.625 13.6875 C5.56828125 14.67556641 5.5115625 15.66363281 5.453125 16.68164062 C5.31166481 19.12182885 5.16025726 21.56098591 5 24 C3.35 24 1.7 24 0 24 C0 16.08 0 8.16 0 0 Z " fill="#1C1853" transform="translate(349,639)"/>
<path d="M0 0 C-0.3125 2.875 -0.3125 2.875 -1 6 C-4.22373677 8.14915785 -5.26703674 8.38286803 -9 8 C-9.66 7.34 -10.32 6.68 -11 6 C-11 4.68 -11 3.36 -11 2 C-7.36576791 -0.32590854 -4.22911669 -0.16265833 0 0 Z " fill="#302C62" transform="translate(620,652)"/>
<path d="M0 0 C0.25 2.3125 0.25 2.3125 0 5 C-2.16382968 7.32411336 -3.4694524 7.93683957 -6.625 8.3125 C-9 8 -9 8 -11 6 C-10.8125 4 -10.8125 4 -10 2 C-6.3558226 -0.4294516 -4.28758728 -0.16179575 0 0 Z " fill="#2E2A60" transform="translate(539,652)"/>
<path d="M0 0 C3.5 0.25 3.5 0.25 5.5 2.25 C5.5 3.57 5.5 4.89 5.5 6.25 C1.54 6.25 -2.42 6.25 -6.5 6.25 C-5.02727273 0.35909091 -5.02727273 0.35909091 0 0 Z " fill="#221E58" transform="translate(332.5,642.75)"/>
</svg>
